<svg fill="#ccff00" xmlns="http://www.w3.org/2000/svg" height="20" viewBox="0 -960 960 960" width="20"><path d="M510.859-344Q557-344 589-375.9q32-31.9 32-78.1v-190h130v-110H567v203q-13.116-6-27.058-9.5T511-564q-46.2 0-78.1 31.859-31.9 31.859-31.9 78T432.859-376q31.859 32 78 32ZM321-210q-40.425 0-69.213-28.787Q223-267.575 223-308v-488q0-40.425 28.787-69.213Q280.575-894 321-894h488q40.425 0 69.213 28.787Q907-836.425 907-796v488q0 40.425-28.787 69.213Q849.425-210 809-210H321Zm0-98h488v-488H321v488ZM151-40q-40.425 0-69.213-28.787Q53-97.575 53-138v-586h98v586h586v98H151Zm170-756v488-488Z"/></svg>