<svg fill="#ccff00" xmlns="http://www.w3.org/2000/svg" height="20" viewBox="0 -960 960 960" width="20"><path d="M277-384q0 35 13 68t35 61l-.5-1-.5-1q2-25 12.5-47.5T364-345l116-129 117 129q16 19 26.5 41.5T636-257l-.5 1.5-.5 1.5q22-25 35-59t13-71q0-45-15-90.5T626-559q-16.54 9-34.534 14-17.995 5-39.466 5-53 0-92.5-27.5T402-643q-31 31-54 62.5t-39 65q-16 33.5-24 66.465-8 32.964-8 65.035Zm203 54-44 51q-8 9-11.5 18.221T421-240q0 24.667 17.181 41.833Q455.362-181 480-181t41.819-17.085Q539-215.17 539-239.723q0-11.277-4.025-21.123-4.025-9.845-11.238-18.09L480-330Zm13-507v140q0 24.475 17.228 41.737Q527.457-638 552-638q13 0 25-6t21-16l23-29q71 43 115.5 128T781-383.829Q781-259 693.222-171 605.444-83 480-83t-213.222-87.778Q179-258.556 179-384q0-117 82.5-239T493-837Z"/></svg>