<svg fill="#ccff00" xmlns="http://www.w3.org/2000/svg" height="20" viewBox="0 -960 960 960" width="20"><path d="M480-492q-70 0-118-48t-48-118q0-70 48-118t118-48q70 0 118 48t48 118q0 70-48 118t-118 48ZM162-131v-127q0-30 14.688-54.854Q191.375-337.708 217-354q59-35 126.2-53.5T479.7-426q69.3 0 136.8 18.5Q684-389 743-354q25.625 15.292 40.312 40.646Q798-288 798-258v127H162Zm98-98h440v-29q0-5.176-1.025-7.412Q697.95-267.647 696-268q-47-28-103.5-44T480-328q-56 0-112.5 15.5T264-268q-2 1-3 3.224T260-258v29Zm220.212-361Q509-590 528.5-609.712q19.5-19.713 19.5-48.5Q548-687 528.288-706.5q-19.713-19.5-48.5-19.5Q451-726 431.5-706.288q-19.5 19.713-19.5 48.5Q412-629 431.712-609.5q19.713 19.5 48.5 19.5ZM480-658Zm0 429Z"/></svg>