<svg fill="#ccff00" xmlns="http://www.w3.org/2000/svg" height="20" viewBox="0 -960 960 960" width="20"><path d="M162-54q-40.425 0-69.213-28.808Q64-111.615 64-152.068v-442.411Q64-621 78.5-645.5T118-680l593-218 33 88-326 118h379.964q40.761 0 69.398 28.799Q896-634.401 896-593.96v442.243q0 40.442-28.787 69.08Q838.425-54 798-54H162Zm0-98h636v-258H162v258Zm149.775-46Q352-198 380-225.775q28-27.774 28-68Q408-334 380.225-362q-27.774-28-68-28Q272-390 244-362.225q-28 27.774-28 68Q216-254 243.775-226q27.774 28 68 28ZM162-508h476v-78h98v78h62v-86H162v86Zm0 356v-258 258Z"/></svg>