<svg fill="#f1f1f1" xmlns="http://www.w3.org/2000/svg" height="20" viewBox="0 -960 960 960" width="20"><path d="M224-292q59-41 123.5-59.5T480-370q68 0 132.5 18.5T736-292q35-46 48.5-92.5T798-480q0-130.675-93.73-224.338Q610.541-798 479.77-798 349-798 255.5-704.338 162-610.675 162-480q0 49 13.5 95.5T224-292Zm256.08-92Q410-384 361-432.92q-49-48.919-49-119Q312-622 360.92-671q48.919-49 119-49Q550-720 599-671.08q49 48.919 49 119Q648-482 599.08-433q-48.919 49-119 49Zm.196 320Q396-64 319.965-96.763q-76.036-32.763-133-90Q130-244 97-319.958q-33-75.959-33-161Q64-566 97-641t89.965-132.237q56.964-57.237 132.958-90T480.958-896Q566-896 641-863t132 90q57 57 90 132.144 33 75.143 33 160.58 0 84.276-32.763 160.311-32.763 76.036-90 133Q716-130 640.856-97q-75.143 33-160.58 33ZM480-162q47 0 94-15t89-45q-43-25-90-37.5T480-272q-46 0-93.5 12T297-222q42 30 89 45t94 15Zm0-320q28 0 49-21t21-49q0-28-21-49t-49-21q-28 0-49 21t-21 49q0 28 21 49t49 21Zm0-70Zm0 330Z"/></svg>