<svg fill="#f1f1f1" xmlns="http://www.w3.org/2000/svg" height="20" viewBox="0 -960 960 960" width="20"><path d="M479.859-218Q504-218 521-234.859t17-41Q538-300 521.141-317t-41-17Q456-334 439-317.141t-17 41Q422-252 438.859-235t41 17ZM432-385h97q0-41.648 5.5-59.824Q540-463 571-493q35-32 49.5-58.419 14.5-26.419 14.5-58.816Q635-671 592.152-707.5T484-744q-60 0-102 31t-57 85l85 35q6-27 24.5-45t47.5-18q25 0 42.5 14.5T542-604q0 23-16.5 41T490-528q-41 37-49.5 57.5T432-385Zm48 321q-85.64 0-161.48-32.52-75.84-32.52-132.66-89.34-56.82-56.82-89.34-132.66T64-480q0-86.896 32.579-162.461 32.579-75.566 89.5-132.552Q243-832 318.738-864 394.476-896 480-896q86.886 0 162.443 32Q718-832 775-775q57 57 89 132.583 32 75.584 32 162.5Q896-394 864-318.5t-88.987 132.421q-56.986 56.921-132.552 89.5Q566.896-64 480-64Zm0-98q132.513 0 225.256-92.744Q798-347.487 798-480t-92.744-225.256Q612.513-798 480-798t-225.256 92.744Q162-612.513 162-480t92.744 225.256Q347.487-162 480-162Zm0-318Z"/></svg>