<svg fill="#f1f1f1" xmlns="http://www.w3.org/2000/svg" height="20" viewBox="0 -960 960 960" width="20"><path d="M480-64q-86 0-162-32.5t-132.5-89Q129-242 96.5-318T64-480q0-86 32.5-162t89-132.5Q242-831 318-863.5T480-896q86 0 162 32.5t132.5 89Q831-718 863.5-642T896-480q0 86-32.5 162t-89 132.5Q718-129 642-96.5T480-64Zm0-102q15-16 31-63t25-99H424q9 52 25 99t31 63Zm-101-12q-13-27-22.5-65T340-328H201q27 54 75 93.5T379-178Zm202 0q55-17 103-56.5t75-93.5H620q-7 47-16.5 85T581-178Zm34-232h159q6-17 8-34.5t2-35.5q0-18-2-36t-8-34H615q2 17 3 35.5t1 36.5q0 18-1 35.5t-3 32.5Zm-202 0h134q2-18 2.5-35.5t.5-34.5q0-17-.5-35t-2.5-35H413q-2 17-2.5 35t-.5 35q0 17 .5 35t2.5 35Zm-227 0h159q-2-17-3-35.5t-1-36.5q0-18 1-35.5t3-32.5H186q-6 17-8 34.5t-2 35.5q0 18 2 35.5t8 34.5Zm434-222h139q-27-54-75-93.5T581-782q13 27 22.5 65t16.5 85Zm-196 0h112q-9-52-25-98.5T480-799q-15 22-31 68.5T424-632Zm-223 0h139q7-47 16.5-85t22.5-65q-55 17-103 56.5T201-632Z"/></svg>