<svg fill="#f1f1f1" xmlns="http://www.w3.org/2000/svg" height="20" viewBox="0 -960 960 960" width="20"><path d="M432-276h98v-244h-98v244Zm47.789-322q18.611 0 31.411-12.589 12.8-12.59 12.8-31.2 0-18.611-12.589-31.411-12.59-12.8-31.2-12.8-18.611 0-31.411 12.589-12.8 12.59-12.8 31.2 0 18.611 12.589 31.411 12.59 12.8 31.2 12.8Zm.233 536Q332-95 235-225.399T138-515v-251l342-132 342 132v250.566q0 159.748-96.978 290.091Q628.044-95 480.022-62ZM480-163q106-34.25 175-132.5t69-219.222v-184.253L480-793l-244 94.025v184.253q0 120.972 69 219.222 69 98.25 175 132.5Zm0-315Z"/></svg>