<svg fill="#f1f1f1" xmlns="http://www.w3.org/2000/svg" height="20" viewBox="0 -960 960 960" width="20"><path d="M340-272h390v-588H340v588Zm0 98q-39.725 0-68.862-29.137Q242-232.275 242-272v-588q0-39.725 29.138-68.862Q300.275-958 340-958h390q39.725 0 68.862 29.138Q828-899.725 828-860v588q0 39.725-29.138 68.863Q769.725-174 730-174H340Zm195-484q27.5 0 46.75-19.25T601-724q0-27.5-19.25-46.75T535-790q-27.5 0-46.75 19.25T469-724q0 27.5 19.25 46.75T535-658Zm.384 348Q601-310 647-356.384t46-112Q693-534 646.616-580t-112-46Q469-626 423-579.616t-46 112Q377-402 423.384-356t112 46ZM535-408q-25 0-42.5-17.5T475-468q0-25 17.5-42.5T535-528q25 0 42.5 17.5T595-468q0 25-17.5 42.5T535-408ZM658-14H190q-40.013 0-68.506-29.138Q93-72.275 92-112v-648h98v648h468v98ZM340-860v588-588Z"/></svg>