<?xml version="1.0" encoding="UTF-8" standalone="no"?>
<!-- Uploaded to: SVG Repo, www.svgrepo.com, Generator: SVG Repo Mixer Tools -->

<svg
   width="18px"
   height="18px"
   role="img"
   viewBox="0 0 16 16"
   fill="none"
   version="1.1"
   id="svg4"
   sodipodi:docname="linkedin.svg"
   inkscape:version="1.2.1 (9c6d41e410, 2022-07-14)"
   xmlns:inkscape="http://www.inkscape.org/namespaces/inkscape"
   xmlns:sodipodi="http://sodipodi.sourceforge.net/DTD/sodipodi-0.dtd"
   xmlns="http://www.w3.org/2000/svg"
   xmlns:svg="http://www.w3.org/2000/svg">
  <defs
     id="defs8" />
  <sodipodi:namedview
     id="namedview6"
     pagecolor="#ffffff"
     bordercolor="#000000"
     borderopacity="0.25"
     inkscape:showpageshadow="2"
     inkscape:pageopacity="0.0"
     inkscape:pagecheckerboard="0"
     inkscape:deskcolor="#d1d1d1"
     showgrid="false"
     inkscape:zoom="1.04625"
     inkscape:cx="399.5221"
     inkscape:cy="400.4779"
     inkscape:window-width="1920"
     inkscape:window-height="1017"
     inkscape:window-x="-8"
     inkscape:window-y="-8"
     inkscape:window-maximized="1"
     inkscape:current-layer="svg4" />
  <path
     fill="#0A66C2"
     d="M12.225 12.225h-1.778V9.44c0-.664-.012-1.519-.925-1.519-.926 0-1.068.724-1.068 1.47v2.834H6.676V6.498h1.707v.783h.024c.348-.594.996-.95 1.684-.925 1.802 0 2.135 1.185 2.135 2.728l-.001 3.14zM4.67 5.715a1.037 1.037 0 01-1.032-1.031c0-.566.466-1.032 1.032-1.032.566 0 1.031.466 1.032 1.032 0 .566-.466 1.032-1.032 1.032zm.889 6.51h-1.78V6.498h1.78v5.727zM13.11 2H2.885A.88.88 0 002 2.866v10.268a.88.88 0 00.885.866h10.226a.882.882 0 00.889-.866V2.865a.88.88 0 00-.889-.864z"
     id="path2" />
  <path
     style="fill:#ffffff;stroke-width:0.955795"
     d="m 189.16704,325.44803 c 0.0536,95.2765 -0.107,190.6417 0.0803,285.86282 29.32671,-0.0535 58.74207,0.10701 88.01337,-0.0803 -0.0536,-95.27651 0.107,-190.64171 -0.0803,-285.86283 -29.32663,0.0534 -58.74219,-0.10695 -88.01337,0.0803 z"
     id="path252"
     transform="scale(0.02)" />
  <path
     style="fill:#ffffff;stroke-width:0.955795"
     d="m 232.67996,183.17466 c -26.21651,0.20403 -50.07204,23.14728 -50.08587,49.6061 -1.29479,27.56622 23.57997,53.65849 51.39186,52.23384 26.27405,0.5201 49.56837,-22.53809 50.53827,-48.52487 1.58046,-28.27031 -23.52673,-54.12118 -51.84426,-53.31507 z"
     id="path254"
     transform="scale(0.02)" />
  <path
     style="fill:#ffffff;stroke-width:0.955795"
     d="m 501.97133,318.41585 c -32.00689,-0.9987 -62.70899,17.0069 -79.90997,43.56571 -0.92338,1.43613 -3.33114,4.25665 -2.88387,0.50164 -0.83813,-12.34418 -0.22794,-24.8109 -0.5395,-37.11544 -28.05232,0.0535 -56.19328,-0.10701 -84.19019,0.0803 0.0536,95.2765 -0.10699,190.6417 0.0803,285.86282 29.32671,-0.0535 58.74206,0.10701 88.01336,-0.0803 0.27795,-54.75889 -0.61171,-109.56864 0.97633,-164.29399 2.00346,-17.63264 8.74052,-37.47546 25.94833,-45.58318 15.67259,-6.94158 35.10633,-8.38645 50.50217,0.0411 16.512,9.47942 21.36819,29.99675 21.84513,47.68332 1.72406,54.04563 0.48559,108.22409 1.00619,162.23304 29.36578,-0.0538 58.82042,0.10687 88.13098,-0.0803 -0.57166,-62.85779 0.2231,-125.74089 -1.47477,-188.58087 -1.29678,-23.82771 -6.99365,-48.25043 -20.38903,-68.29451 -16.09701,-24.08052 -45.75096,-34.69858 -73.69325,-35.64628 -4.46868,-0.25584 -8.94655,-0.35868 -13.42219,-0.29308 z"
     id="path256"
     transform="scale(0.02)" />
</svg>
