<svg fill="#ccff00" xmlns="http://www.w3.org/2000/svg" height="20" viewBox="0 -960 960 960" width="20"><path d="M701.176-78Q645-78 605.5-117.083 566-156.167 566-212q0-7.5 1-13.464 1-5.965 3-13.536L342-376q-16 16-37.854 22T260-348q-56.667 0-96.333-39.118-39.667-39.117-39.667-95Q124-538 163.667-577q39.666-39 96.333-39 22 0 44 6.5t38 21.5l228-137.022q-2-7.708-3-13.843T566-752q0-55.833 39.323-94.917Q644.647-886 700.824-886 757-886 796.5-846.882q39.5 39.117 39.5 95Q836-696 796.333-657 756.667-618 700-618q-22.292 0-44.146-6T618-646L390-509q2 7.571 3 13.536 1 5.964 1 13.464t-1 13.464q-1 5.965-3 13.536l228 137q16-17 37.854-22.5T700-346q56.667 0 96.333 39.118 39.667 39.117 39.667 95Q836-156 796.677-117q-39.324 39-95.501 39Zm-.404-638q15.628 0 26.428-10.572t10.8-26.2q0-15.628-10.572-26.428t-26.2-10.8q-15.628 0-26.428 10.572t-10.8 26.2q0 15.628 10.572 26.428t26.2 10.8Zm-442 270q15.628 0 26.428-10.572t10.8-26.2q0-15.628-10.572-26.428t-26.2-10.8q-15.628 0-26.428 10.572t-10.8 26.2q0 15.628 10.572 26.428t26.2 10.8Zm442 270q15.628 0 26.428-10.572t10.8-26.2q0-15.628-10.572-26.428t-26.2-10.8q-15.628 0-26.428 10.572t-10.8 26.2q0 15.628 10.572 26.428t26.2 10.8ZM701-753ZM259-483Zm442 270Z"/></svg>